Title                            : Transformers: Dark of the Moon
Year                             : 2011
Genre                            : Action | Adventure | Sci-Fi
iMDB URL                         : http://www.imdb.com/title/tt1399103/

Complete name                    : Transformers.Dark.of.the.Moon.2011.BRRIP.720P.H264-ZEKTORM.mp4
Format                           : MPEG-4
Format profile                   : Base Media
Codec ID                         : isom
File size                        : 4.34 GiB
Duration                         : 2h 34mn
Overall bit rate                 : 4020 Kbps
Subtitles                        : English (Format: srt)

Video
ID                               : 1
Format                           : AVC
Format/Info                      : Advanced Video Codec
Format profile                   : High@L4.0
Format settings, CABAC           : Yes
Format settings, ReFrames        : 12 frames
Codec ID                         : avc1
Codec ID/Info                    : Advanced Video Coding
Duration                         : 2h 34mn
Bit rate mode                    : Variable
Bit rate                         : 3570 Kbps
Width                            : 1280 pixels
Height                           : 528 pixels
Display aspect ratio             : 2.424
Frame rate mode                  : Constant
Frame rate                       : 23.976 fps
Resolution                       : 24 bits
Colorimetry                      : 4:2:0
Scan type                        : Progressive
Bits/(Pixel*Frame)               : 0.220
Stream size                      : 3.85 GiB (89%)
Title                            : Video
Writing library                  : x264

Audio
ID                               : 2
Format                           : AAC
Format/Info                      : Advanced Audio Codec
Format version                   : Version 4
Format profile                   : LC
Format settings, SBR             : No
Codec ID                         : 40
Duration                         : 2h 34mn
Bit rate mode                    : Variable
Bit rate                         : 446 Kbps
Maximum bit rate                 : 540 Kbps
Channel(s)                       : 6 channels
Channel positions                : Front: L C R, Rear: L R, LFE
Sampling rate                    : 48.0 KHz
Resolution                       : 16 bits
Stream size                      : 492 MiB (11%)
Language                         : English


Screenshots:

[img]http://img831.imageshack.us/img831/7748/snapt1.png[/img]

[img]http://img508.imageshack.us/img508/9537/snapt2.png[/img]

[img]http://img707.imageshack.us/img707/2377/snapt3.png[/img]

[img]http://img689.imageshack.us/img689/586/snapt4.png[/img]

[img]http://img545.imageshack.us/img545/7688/snapt5.png[/img]
